<?xml version="1.0" encoding="utf-8"?>
<!-- Generator: Adobe Illustrator 24.1.2, SVG Export Plug-In . SVG Version: 6.00 Build 0)  -->
<svg version="1.1" id="Capa_1" xmlns="http://www.w3.org/2000/svg" xmlns:xlink="http://www.w3.org/1999/xlink" x="0px" y="0px"
	 viewBox="0 0 489.7 489.7" style="enable-background:new 0 0 489.7 489.7;" xml:space="preserve">
<style type="text/css">
	.st0{fill:#FFFFFF;}
</style>
<path class="st0" d="M487.9,12.6c-8-8-64.8,11.5-128,44.4c-12.1,6.3-20.6,17.8-23,31.2l-3.6,20.1l-4.8-27c-0.3-1.5-1.2-2.7-2.6-3.4
	c-1.4-0.6-3-0.5-4.3,0.2c-13.2,7.8-26.3,16-39,24.6c-11.8,8-19.8,20.4-22.3,34.4l-9.5,53.6l-9.1-51c-0.2-1.2-1-2.2-2.2-2.6
	c-1.1-0.4-2.4-0.2-3.3,0.6c-10.7,9.1-19.5,17.3-30.3,28.9c-7.7,8.2-12.7,18.4-14.7,29.5l-15.2,85.3l-10-56.1
	c-0.2-1.4-1.3-2.4-2.6-2.7c-1.4-0.3-2.7,0.3-3.5,1.4c-32.9,49.4-47.4,96.1-38.2,126L1.4,470.7c-1.5,1.5-1.9,3.9-0.8,5.7
	c1,1.9,3.2,2.9,5.3,2.4l47.9-10.5c5.9-1.3,11.2-4.2,15.5-8.5l81.2-81.2c29.8,9.2,76.6-5.3,126-38.2c1.1-0.8,1.7-2.2,1.4-3.5
	c-0.3-1.4-1.4-2.4-2.7-2.6l-56.1-10l85.3-15.2c11-2,21.3-7.1,29.5-14.7c11.6-10.8,19.8-19.6,28.9-30.3c0.8-0.9,1-2.2,0.6-3.3
	c-0.4-1.1-1.4-2-2.6-2.2l-51-9.1l53.6-9.5c14-2.5,26.4-10.5,34.4-22.3c8.6-12.6,16.8-25.7,24.6-39c0.8-1.3,0.8-2.9,0.2-4.3
	c-0.6-1.4-1.9-2.3-3.4-2.6l-27-4.8l20-3.6c13.4-2.4,24.9-10.9,31.2-23C476.4,77.5,496,20.6,487.9,12.6z"/>
</svg>
