<?xml version="1.0" encoding="utf-8"?>
<!-- Generator: Adobe Illustrator 24.1.2, SVG Export Plug-In . SVG Version: 6.00 Build 0)  -->
<svg version="1.1" id="Capa_1" xmlns="http://www.w3.org/2000/svg" xmlns:xlink="http://www.w3.org/1999/xlink" x="0px" y="0px"
	 viewBox="0 0 124.1 239" style="enable-background:new 0 0 124.1 239;" xml:space="preserve">
<style type="text/css">
	.st0{fill:#E5EBF1;}
	.st1{fill:#FF2C55;}
</style>
<g>
	<path class="st0" d="M12.5,77.1c7.7,10.2,17.7,18.4,28.1,25.8c0,0,12.4,8.6,18.1,12.6c2.1,1.4,4.8,1.4,6.8,0c5.7-4,18-12.6,18-12.6
		c10.4-7.4,20.2-15.5,28-25.8c6.6-8.8,11.5-19.2,12.4-30.2c1.6-20-11.3-39.2-32.7-39.2c-12.5,0-23.5,6.8-29.1,16.9
		c-5.8-10.2-16.7-17-29.2-17C11.6,7.6-1.5,26.8,0.1,46.8C1,57.8,5.8,68.3,12.5,77.1z"/>
</g>
<g>
	<path class="st1" d="M13,193.6c7.7,10.2,17.7,18.4,28.1,25.8c0,0,12.4,8.6,18.1,12.6c2.1,1.4,4.8,1.4,6.8,0c5.7-4,18-12.6,18-12.6
		c10.4-7.4,20.2-15.5,28-25.8c6.6-8.8,11.5-19.2,12.4-30.2c1.6-20-11.3-39.2-32.7-39.2c-12.5,0-23.5,6.8-29.1,16.9
		c-5.8-10.2-16.7-17-29.2-17c-21.3,0-34.4,19.2-32.8,39.2C1.5,174.3,6.3,184.8,13,193.6z"/>
</g>
</svg>
